<?xml version="1.0" encoding="UTF-8" standalone="no"?>
<svg
   xmlns:dc="http://purl.org/dc/elements/1.1/"
   xmlns:cc="http://creativecommons.org/ns#"
   xmlns:rdf="http://www.w3.org/1999/02/22-rdf-syntax-ns#"
   xmlns:svg="http://www.w3.org/2000/svg"
   xmlns="http://www.w3.org/2000/svg"
   id="svg3523"
   version="1.1"
   viewBox="0 0 164.04166 132.29167"
   height="500"
   width="620">
  <defs
     id="defs3517">
    <clipPath
       id="clip-path-2">
      <rect
         height="1080"
         width="1920"
         data-name="Rectangle 1"
         id="Rectangle_1"
         x="0"
         y="0"
         style="fill:#ff0073;stroke:#707070;stroke-width:1" />
    </clipPath>
  </defs>
  <metadata
     id="metadata3520">
    <rdf:RDF>
      <cc:Work
         rdf:about="">
        <dc:format>image/svg+xml</dc:format>
        <dc:type
           rdf:resource="http://purl.org/dc/dcmitype/StillImage" />
        <dc:title></dc:title>
      </cc:Work>
    </rdf:RDF>
  </metadata>
  <g
     transform="translate(0,-164.70832)"
     id="layer1">
    <g
       id="g3692"
       transform="matrix(0.26083676,0,0,0.26302489,-299.47978,-199.08143)">
      <ellipse
         style="opacity:0.05;fill:#111010"
         ry="9"
         rx="216"
         cy="1878"
         cx="1527"
         data-name="Ellipse 12"
         id="Ellipse_12" />
      <g
         transform="translate(0,138)"
         data-name="Group 7"
         id="Group_7">
        <path
           style="fill:#929292"
           transform="translate(-2387.409,890.039)"
           d="m 4079.819,543.424 h -28.4 c 0,-41.4 -14.267,-80.366 -40.174,-109.72 -25.907,-29.354 -60.295,-45.52 -96.832,-45.52 -75.545,0 -137.006,69.64 -137.006,155.238 H 3749 a 213.1,213.1 0 0 1 3.36,-37.773 205.108,205.108 0 0 1 9.64,-35.18 196.526,196.526 0 0 1 15.25,-31.837 185.892,185.892 0 0 1 20.2,-27.738 173.093,173.093 0 0 1 24.481,-22.886 160.446,160.446 0 0 1 28.1,-17.281 150.879,150.879 0 0 1 31.049,-10.921 147.832,147.832 0 0 1 66.671,0 150.875,150.875 0 0 1 31.049,10.921 160.454,160.454 0 0 1 28.1,17.281 173.068,173.068 0 0 1 24.48,22.886 185.9,185.9 0 0 1 20.2,27.738 196.593,196.593 0 0 1 15.251,31.837 205.179,205.179 0 0 1 9.638,35.181 213.14,213.14 0 0 1 3.36,37.772 z"
           data-name="Subtraction 2"
           id="Subtraction_2" />
        <g
           style="fill:#ffffff;stroke:#707070;stroke-width:1"
           transform="translate(1330,1421)"
           data-name="Rectangle 78"
           id="Rectangle_78">
          <path
             style="stroke:none"
             id="path2735"
             d="M 27,0 H 64 V 131 H 28 A 28,28 0 0 1 0,103 V 27 A 27,27 0 0 1 27,0 Z" />
          <path
             style="fill:none"
             id="path2737"
             d="M 27,0.5 H 63 A 0.5,0.5 0 0 1 63.5,1 V 130 A 0.5,0.5 0 0 1 63,130.5 H 28 A 27.5,27.5 0 0 1 0.5,103 V 27 A 26.5,26.5 0 0 1 27,0.5 Z" />
        </g>
        <g
           style="fill:#ffffff;stroke:#707070;stroke-width:1"
           transform="translate(1660,1420)"
           data-name="Rectangle 81"
           id="Rectangle_81">
          <path
             style="stroke:none"
             id="path2740"
             d="m 0,0 h 37 a 27,27 0 0 1 27,27 v 76 A 28,28 0 0 1 36,131 H 0 Z" />
          <path
             style="fill:none"
             id="path2742"
             d="M 1,0.5 H 37 A 26.5,26.5 0 0 1 63.5,27 v 76 A 27.5,27.5 0 0 1 36,130.5 H 1 A 0.5,0.5 0 0 1 0.5,130 V 1 A 0.5,0.5 0 0 1 1,0.5 Z" />
        </g>
        <path
           style="fill:#929292"
           transform="translate(1330,1421)"
           d="M 27,0 H 45 V 131 H 28 A 28,28 0 0 1 0,103 V 27 A 27,27 0 0 1 27,0 Z"
           data-name="Rectangle 79"
           id="Rectangle_79" />
        <path
           style="fill:#929292"
           transform="translate(1679,1420)"
           d="m 0,0 h 18 a 27,27 0 0 1 27,27 v 76 A 28,28 0 0 1 17,131 H 0 Z"
           data-name="Rectangle 80"
           id="Rectangle_80" />
      </g>
      <rect
         style="fill:#686466"
         y="1501"
         x="1424"
         rx="11"
         height="377"
         width="211.22099"
         data-name="Rectangle 65"
         id="Rectangle_65" />
      <rect
         style="fill:#ffffff"
         y="1514"
         x="1434.345"
         height="340"
         width="191.43401"
         data-name="Rectangle 66"
         id="Rectangle_66" />
      <rect
         style="fill:#686466"
         y="1502"
         x="1491.699"
         rx="9"
         height="32"
         width="75.822998"
         data-name="Rectangle 67"
         id="Rectangle_67" />
      <rect
         style="fill:#929292"
         y="1860.238"
         x="1497.45"
         rx="4.177"
         height="8.3549995"
         width="59.360001"
         data-name="Rectangle 74"
         id="Rectangle_74" />
      <path
         style="fill:#ff0073"
         d="m 1557.579,1711.462 v -44.126 h 9.944 v 44.126 z m -13.052,0 v -44.126 h 9.944 v 44.126 z m -13.051,0 v -32.318 h 9.944 v 32.318 z m -13.051,0 v -44.126 h 9.944 v 44.126 z m -13.051,0 v -32.318 h 9.944 v 32.318 z m -13.052,0 v -44.126 h 9.944 v 44.126 z"
         data-name="Union 2"
         id="Union_2" />
      <path
         style="fill:#8ed8de"
         d="m 1220.154,1711 v 52.825 a 24.988,24.988 0 0 0 -8.538,-1.594 25.616,25.616 0 1 0 25.33,28.461 h 0.285 v -62.615 H 1260 V 1711 Z"
         id="ic_audiotrack_24px" />
      <path
         style="fill:#8ed8de"
         d="m 1373.659,1749.461 v 42.212 a 19.968,19.968 0 0 0 -6.823,-1.274 20.469,20.469 0 1 0 20.242,22.744 h 0.227 v -50.036 h 18.195 v -13.646 z"
         data-name="ic_audiotrack_24px"
         id="ic_audiotrack_24px-3" />
      <path
         style="fill:#8ed8de"
         d="m 1741.154,1749 v 45.091 a 21.33,21.33 0 0 0 -7.288,-1.361 21.866,21.866 0 1 0 21.622,24.296 h 0.243 v -53.449 h 19.436 V 1749 Z"
         data-name="ic_audiotrack_24px"
         id="ic_audiotrack_24px-5" />
      <path
         style="fill:#8ed8de"
         d="m 1748.821,1451 v 38.389 a 18.16,18.16 0 0 0 -6.205,-1.158 18.616,18.616 0 1 0 18.408,20.684 h 0.207 v -45.505 h 16.547 V 1451 Z"
         data-name="ic_audiotrack_24px"
         id="ic_audiotrack_24px-6" />
      <path
         style="fill:#8ed8de"
         d="m 1183.154,1451 v 52.825 a 24.988,24.988 0 0 0 -8.538,-1.594 25.616,25.616 0 1 0 25.33,28.461 h 0.285 v -62.615 H 1223 V 1451 Z"
         data-name="ic_audiotrack_24px"
         id="ic_audiotrack_24px-9" />
      <path
         style="fill:#8ed8de"
         d="m 1330.741,1445.76 c 0,-7.855 6.673,-14.217 14.913,-14.217 a 15.459,15.459 0 0 1 7.457,1.954 v -21.085 h -23.695 v 33.348 c 0,7.855 -6.674,14.218 -14.913,14.218 -8.239,0 -14.913,-6.362 -14.913,-14.218 0,-7.856 6.674,-14.217 14.914,-14.217 a 15.46,15.46 0 0 1 7.457,1.954 v -21.085 h -13.8 V 1396 h 67.317 v 14.217 h -0.1 v 2.195 h -14.818 v 33.348 c 0,7.855 -6.674,14.218 -14.914,14.218 -8.24,0 -14.905,-6.362 -14.905,-14.218 z"
         data-name="Union 3"
         id="Union_3" />
    </g>
  </g>
</svg>
