<?xml version="1.0" encoding="UTF-8" standalone="no"?>
<svg
   xmlns:dc="http://purl.org/dc/elements/1.1/"
   xmlns:cc="http://creativecommons.org/ns#"
   xmlns:rdf="http://www.w3.org/1999/02/22-rdf-syntax-ns#"
   xmlns:svg="http://www.w3.org/2000/svg"
   xmlns="http://www.w3.org/2000/svg"
   id="svg733"
   version="1.1"
   viewBox="0 0 6.6145832 6.6145835"
   height="25"
   width="25">
  <defs
     id="defs727" />
  <metadata
     id="metadata730">
    <rdf:RDF>
      <cc:Work
         rdf:about="">
        <dc:format>image/svg+xml</dc:format>
        <dc:type
           rdf:resource="http://purl.org/dc/dcmitype/StillImage" />
        <dc:title></dc:title>
      </cc:Work>
    </rdf:RDF>
  </metadata>
  <g
     transform="translate(0,-290.3854)"
     id="layer1">
    <path
       style="fill:#004487;stroke-width:0.40779698"
       d="m 6.5339216,293.02611 -0.7273089,-0.59852 a 0.18851928,0.22053234 0 0 0 0.009,-0.0812 c 0,-0.20686 0,-0.4146 0,-0.6219 0,-0.20731 0,-0.4146 0,-0.62191 0,-0.11519 -0.02941,-0.1512 -0.1270702,-0.1512 -0.2322549,0 -0.464888,0 -0.6971429,0 -0.09615,0 -0.1255601,0.037 -0.126315,0.15303 v 0.54825 l -1.4387801,-1.18515 c -0.1067059,-0.0882 -0.1131041,-0.0882 -0.2190589,-0.005 l -1.838818,1.51505 q -0.63832601,0.52531 -1.279291,1.05327 c -0.08634,0.0705 -0.101419,0.12303 -0.05278,0.2051 q 0.20850299,0.35549 0.42115299,0.7057 a 0.42077503,0.49222816 0 0 0 0.08559,0.0785 c 0.03771,-0.0265 0.07164,-0.0442 0.101419,-0.0697 l 0.15420902,-0.12753 a 0.23904244,0.27963498 0 0 0 -0.0091,0.0794 q 0.0023,1.46038 0,2.92207 c 0,0.15386 0.02941,0.1892 0.158733,0.1892 H 2.5202347 c 0.133853,0 0.156471,-0.0282 0.156471,-0.18745 v -2.60228 h 1.2770299 v 2.61508 c 0,0.14253 0.02715,0.17642 0.145161,0.17642 h 1.5794131 c 0.1172519,0 0.1474221,-0.0362 0.1474221,-0.17334 q 0,-1.48329 0,-2.96527 a 0.26807441,0.31359697 0 0 0 -0.0053,-0.06 l 0.1677821,0.13886 c 0.09841,0.0812 0.1368599,0.0724 0.2047308,-0.0415 l 0.3770342,-0.6369 c 0.07956,-0.12619 0.07276,-0.16503 -0.0362,-0.25362 z"
       id="home" />
  </g>
</svg>
