<?xml version="1.0" encoding="UTF-8" standalone="no"?>
<svg
   xmlns:dc="http://purl.org/dc/elements/1.1/"
   xmlns:cc="http://creativecommons.org/ns#"
   xmlns:rdf="http://www.w3.org/1999/02/22-rdf-syntax-ns#"
   xmlns:svg="http://www.w3.org/2000/svg"
   xmlns="http://www.w3.org/2000/svg"
   xmlns:sodipodi="http://sodipodi.sourceforge.net/DTD/sodipodi-0.dtd"
   xmlns:inkscape="http://www.inkscape.org/namespaces/inkscape"
   width="48"
   height="48"
   viewBox="0 0 48 48"
   version="1.1"
   id="svg139"
   sodipodi:docname="playlists.svg"
   inkscape:version="0.92.4 (ca053d0, 2019-01-16)">
  <metadata
     id="metadata143">
    <rdf:RDF>
      <cc:Work
         rdf:about="">
        <dc:format>image/svg+xml</dc:format>
        <dc:type
           rdf:resource="http://purl.org/dc/dcmitype/StillImage" />
        <dc:title></dc:title>
      </cc:Work>
    </rdf:RDF>
  </metadata>
  <sodipodi:namedview
     pagecolor="#ffffff"
     bordercolor="#666666"
     borderopacity="1"
     objecttolerance="10"
     gridtolerance="10"
     guidetolerance="10"
     inkscape:pageopacity="0"
     inkscape:pageshadow="2"
     inkscape:window-width="1280"
     inkscape:window-height="746"
     id="namedview141"
     showgrid="false"
     inkscape:zoom="11.375"
     inkscape:cx="24"
     inkscape:cy="24"
     inkscape:window-x="0"
     inkscape:window-y="28"
     inkscape:window-maximized="1"
     inkscape:current-layer="layer5"
     units="px" />
  <defs
     id="defs124">
    <style
       id="style119">
      .cls-1 {
        clip-path: url(#clip-Artboard_1);
      }

      .cls-2 {
        fill: #ff0073;
      }
    </style>
    <clipPath
       id="clip-Artboard_1">
      <rect
         width="2004"
         height="1495"
         id="rect121"
         x="0"
         y="0" />
    </clipPath>
  </defs>
  <g
     inkscape:groupmode="layer"
     id="layer1"
     inkscape:label="1"
     transform="translate(0,-1447)" />
  <g
     inkscape:groupmode="layer"
     id="layer2"
     inkscape:label="2"
     transform="translate(0,-1447)" />
  <g
     inkscape:groupmode="layer"
     id="layer3"
     inkscape:label="3"
     transform="translate(0,-1447)" />
  <g
     inkscape:groupmode="layer"
     id="layer4"
     inkscape:label="4"
     transform="translate(0,-1447)" />
  <g
     inkscape:groupmode="layer"
     id="layer5"
     inkscape:label="5"
     transform="translate(0,-1447)">
    <path
       style="fill:#ff0073;stroke-width:2.18181825"
       inkscape:connector-curvature="0"
       d="m 43.235202,1446.9717 h -28.8 a 4.8130909,4.8130909 0 0 0 -4.7999999,4.8 v 28.8 a 4.8130909,4.8130909 0 0 0 4.7999999,4.8 h 28.8 a 4.8130909,4.8130909 0 0 0 4.8,-4.8 v -28.8 a 4.8130909,4.8130909 0 0 0 -4.8,-4.8 z m -4.8,12 h -7.2 v 13.2 a 6,6 0 1 1 -6,-6 5.8734545,5.8734545 0 0 1 3.6,1.224 v -13.224 h 9.6 z m -33.5999999,-2.4 H 0.03520211 v 33.6 a 4.8130909,4.8130909 0 0 0 4.79999999,4.8 H 38.435202 v -4.8 H 4.8352021 Z"
       class="cls-2"
       id="ic_library_music_24px" />
  </g>
</svg>
