<?xml version="1.0" standalone="no"?>
<!DOCTYPE svg PUBLIC "-//W3C//DTD SVG 20010904//EN"
 "http://www.w3.org/TR/2001/REC-SVG-20010904/DTD/svg10.dtd">
<svg version="1.0" xmlns="http://www.w3.org/2000/svg"
 width="581.000000pt" height="469.000000pt" viewBox="0 0 581.000000 469.000000"
 preserveAspectRatio="xMidYMid meet">

<g transform="translate(0.000000,469.000000) scale(0.100000,-0.100000)"
fill="#000000" stroke="none">
<path d="M3375 4684 c-291 -43 -458 -104 -670 -247 -115 -79 -311 -273 -399
-397 -175 -248 -302 -597 -331 -907 l-7 -73 -40 0 c-92 0 -185 -58 -231 -144
-21 -40 -22 -50 -25 -439 -3 -457 -1 -476 69 -552 61 -66 105 -83 229 -86 148
-5 290 0 290 9 0 4 -38 6 -85 4 l-85 -3 0 600 0 601 79 0 c75 0 80 -1 84 -22
4 -20 4 -19 6 5 1 18 -4 27 -15 27 -13 0 -14 9 -9 58 70 609 465 1105 985
1237 402 102 813 -23 1118 -339 227 -236 359 -513 406 -851 12 -88 12 -94 -6
-98 -17 -5 -18 -32 -18 -610 l0 -604 149 -7 c174 -8 239 -2 301 29 57 29 93
68 119 126 19 43 21 67 21 457 1 398 0 413 -20 459 -41 93 -112 142 -216 151
l-61 5 -6 81 c-12 166 -74 400 -152 577 -214 488 -646 850 -1112 934 -88 16
-311 27 -368 19z m1525 -2224 l0 -600 -85 0 -85 0 0 600 0 600 85 0 85 0 0
-600z"/>
<path d="M2578 3571 l-33 -29 -3 -1685 c-1 -1087 1 -1694 8 -1711 5 -14 24
-35 42 -46 32 -20 47 -20 936 -18 l904 3 29 33 29 32 0 1691 c0 1140 -3 1697
-10 1710 -27 50 -2 49 -969 49 l-901 0 -32 -29z m592 -168 c8 -114 -12 -107
341 -111 l300 -3 29 30 c27 27 30 36 30 95 l0 66 268 -2 267 -3 0 -1580 0
-1580 -882 -3 -883 -2 0 1585 0 1585 263 -2 262 -3 5 -72z"/>
<path d="M3170 1846 l0 -206 50 0 50 0 -2 203 -3 202 -47 3 -48 3 0 -205z"/>
<path d="M3410 1845 l0 -205 50 0 50 0 0 205 0 205 -50 0 -50 0 0 -205z"/>
<path d="M3657 2043 c-4 -3 -7 -96 -7 -205 l0 -198 50 0 50 0 0 205 0 205 -43
0 c-24 0 -47 -3 -50 -7z"/>
<path d="M3780 1845 l0 -205 45 0 45 0 0 205 0 205 -45 0 -45 0 0 -205z"/>
<path d="M3290 1791 l0 -151 50 0 51 0 -3 148 -3 147 -47 3 -48 3 0 -150z"/>
<path d="M3537 1933 c-4 -3 -7 -71 -7 -150 l0 -143 50 0 50 0 0 150 0 150 -43
0 c-24 0 -47 -3 -50 -7z"/>
</g>
</svg>
