<?xml version="1.0" standalone="no"?>
<!DOCTYPE svg PUBLIC "-//W3C//DTD SVG 20010904//EN"
 "http://www.w3.org/TR/2001/REC-SVG-20010904/DTD/svg10.dtd">
<svg version="1.0" xmlns="http://www.w3.org/2000/svg"
 width="1200.000000pt" height="675.000000pt" viewBox="0 0 1200.000000 675.000000"
 preserveAspectRatio="xMidYMid meet">

<g transform="translate(0.000000,675.000000) scale(0.100000,-0.100000)"
fill="#000000" stroke="none">
<path d="M0 4410 l0 -2340 150 0 150 0 0 -455 c0 -398 2 -455 15 -455 11 0 15
-12 15 -49 l0 -48 60 -10 60 -10 0 289 0 288 188 -2 187 -3 3 -312 2 -312 33
-5 c17 -3 49 -7 70 -10 l37 -5 0 415 0 414 65 0 65 0 0 -419 0 -418 38 -7 c20
-3 54 -6 75 -6 l37 0 0 230 0 230 133 0 134 0 7 -237 c4 -131 8 -238 9 -239 1
-1 32 -4 68 -7 l66 -6 6 391 c4 215 7 474 7 575 l0 184 158 -3 157 -3 3 -572
2 -573 60 0 60 0 0 120 0 120 115 0 115 0 0 -120 0 -120 60 0 60 0 0 350 0
350 48 0 c27 0 110 -3 185 -7 l137 -6 0 -334 0 -334 78 3 77 3 0 425 0 425 63
3 62 3 0 -421 0 -420 59 0 c98 0 91 -18 91 231 l0 219 160 0 160 0 0 -206 0
-205 48 7 c26 3 51 9 56 12 5 3 6 227 1 528 l-7 524 161 0 161 0 0 -505 0
-505 23 0 c12 0 46 3 75 6 l52 7 0 43 0 44 115 0 115 0 0 -26 c0 -19 4 -24 18
-20 9 2 36 8 59 11 l43 7 0 239 0 239 148 1 c81 1 165 1 187 2 l40 0 3 -207
c2 -191 4 -207 20 -202 9 2 43 10 75 17 l57 12 0 284 0 283 60 0 60 0 2 -187
c1 -104 2 -224 3 -268 l0 -80 35 3 c19 1 52 7 73 13 l37 10 0 59 0 60 140 0
140 0 0 -30 c0 -34 0 -34 87 -19 l63 11 0 349 0 349 135 0 135 0 0 -725 0
-725 -3005 0 -3005 0 0 -310 0 -310 6000 0 6000 0 0 310 0 310 -2970 0 -2970
0 0 404 c0 377 1 405 18 410 9 3 100 17 202 31 102 14 200 28 218 31 32 5 32
6 32 59 l0 55 190 0 190 0 0 -30 0 -31 53 6 c106 12 97 0 97 130 l0 115 60 0
60 0 0 -111 0 -111 28 5 c15 3 145 16 290 28 l262 23 0 218 0 218 155 0 155 0
0 -204 c0 -113 3 -207 8 -209 4 -2 66 0 137 4 72 4 300 11 508 15 l377 7 0 59
0 58 60 0 60 0 0 -59 0 -59 83 -6 c45 -3 175 -8 290 -11 l207 -6 0 205 0 206
160 0 160 0 0 -219 0 -218 88 -7 c48 -3 152 -13 231 -22 133 -15 145 -15 153
0 8 14 34 16 193 16 l185 0 0 -44 0 -43 43 -7 c23 -4 57 -9 75 -12 l32 -6 0
146 0 147 63 -3 62 -3 3 -155 2 -155 153 -34 c83 -19 178 -37 210 -39 34 -2
57 -8 57 -15 0 -9 94 -66 142 -85 4 -2 8 168 8 377 l0 381 90 0 90 0 0 2340 0
2340 -6000 0 -6000 0 0 -2340z"/>
</g>
</svg>
